<?xml version="1.0" encoding="UTF-8"?>
<svg width="23px" height="21px" viewBox="0 0 23 21" version="1.1" xmlns="http://www.w3.org/2000/svg" xmlns:xlink="http://www.w3.org/1999/xlink">
    <!-- Generator: Sketch 55.2 (78181) - https://sketchapp.com -->
    <title>icon/citas-blue</title>
    <desc>Created with Sketch.</desc>
    <g id="icon/citas-blue" stroke="none" stroke-width="1" fill="none" fill-rule="evenodd">
        <path d="M20.3166667,2.33333333 C21.7979146,2.33503472 22.9983229,3.55284028 23,5.05555556 L23,18.2777778 C22.9983229,19.7804931 21.7979146,20.9982986 20.3166667,21 L2.68333333,21 C1.20208542,20.9982986 0.00167708333,19.7804931 0,18.2777778 L0,5.05555556 C0.00167708333,3.55284028 1.20208542,2.33503472 2.68333333,2.33333333 L5.75,2.33333333 L5.75,0.388888889 C5.75,0.174125 5.9216375,0 6.13333333,0 C6.34502917,0 6.51666667,0.174125 6.51666667,0.388888889 L6.51666667,2.33333333 L16.4833333,2.33333333 L16.4833333,0.388888889 C16.4833333,0.174125 16.6549708,0 16.8666667,0 C17.0783625,0 17.25,0.174125 17.25,0.388888889 L17.25,2.33333333 L20.3166667,2.33333333 Z M2,7 L2,9 L21,9 L21,7 L2,7 Z M5.5,17 C5.77614237,17 6,16.7761424 6,16.5 C6,16.2238576 5.77614237,16 5.5,16 C5.22385763,16 5,16.2238576 5,16.5 C5,16.7761424 5.22385763,17 5.5,17 Z M16.5,17 C16.7761424,17 17,16.7761424 17,16.5 C17,16.2238576 16.7761424,16 16.5,16 C16.2238576,16 16,16.2238576 16,16.5 C16,16.7761424 16.2238576,17 16.5,17 Z M5.5,12 C5.77614237,12 6,11.7761424 6,11.5 C6,11.2238576 5.77614237,11 5.5,11 C5.22385763,11 5,11.2238576 5,11.5 C5,11.7761424 5.22385763,12 5.5,12 Z M16.5,12 C16.7761424,12 17,11.7761424 17,11.5 C17,11.2238576 16.7761424,11 16.5,11 C16.2238576,11 16,11.2238576 16,11.5 C16,11.7761424 16.2238576,12 16.5,12 Z M10.5,12 C10.7761424,12 11,11.7761424 11,11.5 C11,11.2238576 10.7761424,11 10.5,11 C10.2238576,11 10,11.2238576 10,11.5 C10,11.7761424 10.2238576,12 10.5,12 Z M10.5,17 C10.7761424,17 11,16.7761424 11,16.5 C11,16.2238576 10.7761424,16 10.5,16 C10.2238576,16 10,16.2238576 10,16.5 C10,16.7761424 10.2238576,17 10.5,17 Z" id="Combined-Shape" fill="#009CBE" fill-rule="nonzero"></path>
    </g>
</svg>