<?xml version="1.0" encoding="UTF-8"?>
<svg width="23px" height="21px" viewBox="0 0 23 21" version="1.1" xmlns="http://www.w3.org/2000/svg" xmlns:xlink="http://www.w3.org/1999/xlink">
    <!-- Generator: Sketch 55.2 (78181) - https://sketchapp.com -->
    <title>icon/citas-grey</title>
    <desc>Created with Sketch.</desc>
    <g id="icon/citas-grey" stroke="none" stroke-width="1" fill="none" fill-rule="evenodd">
        <g id="icon_citas" fill="#C3C3C3" fill-rule="nonzero">
            <path d="M20.3166667,2.33333333 L17.25,2.33333333 L17.25,0.388888889 C17.25,0.174125 17.0783625,0 16.8666667,0 C16.6549708,0 16.4833333,0.174125 16.4833333,0.388888889 L16.4833333,2.33333333 L6.51666667,2.33333333 L6.51666667,0.388888889 C6.51666667,0.174125 6.34502917,0 6.13333333,0 C5.9216375,0 5.75,0.174125 5.75,0.388888889 L5.75,2.33333333 L2.68333333,2.33333333 C1.20208542,2.33503472 0.00167708333,3.55284028 0,5.05555556 L0,18.2777778 C0.00167708333,19.7804931 1.20208542,20.9982986 2.68333333,21 L20.3166667,21 C21.7979146,20.9982986 22.9983229,19.7804931 23,18.2777778 L23,5.05555556 C22.9983229,3.55284028 21.7979146,2.33503472 20.3166667,2.33333333 Z M22.2333333,18.2777778 C22.2320875,19.3511111 21.3746667,20.2209583 20.3166667,20.2222222 L2.68333333,20.2222222 C1.62533333,20.2209583 0.7679125,19.3511111 0.766666667,18.2777778 L0.766666667,8.55555556 L22.2333333,8.55555556 L22.2333333,18.2777778 Z M22.2333333,7.77777778 L0.766666667,7.77777778 L0.766666667,5.05555556 C0.7679125,3.98222222 1.62533333,3.112375 2.68333333,3.11111111 L5.75,3.11111111 L5.75,5.05555556 C5.75,5.27031944 5.9216375,5.44444444 6.13333333,5.44444444 C6.34502917,5.44444444 6.51666667,5.27031944 6.51666667,5.05555556 L6.51666667,3.11111111 L16.4833333,3.11111111 L16.4833333,5.05555556 C16.4833333,5.27031944 16.6549708,5.44444444 16.8666667,5.44444444 C17.0783625,5.44444444 17.25,5.27031944 17.25,5.05555556 L17.25,3.11111111 L20.3166667,3.11111111 C21.3746667,3.112375 22.2320875,3.98222222 22.2333333,5.05555556 L22.2333333,7.77777778 Z" id="Shape"></path>
            <circle id="Oval" cx="5.5" cy="16.5" r="1"></circle>
            <circle id="Oval" cx="16.5" cy="16.5" r="1"></circle>
            <circle id="Oval" cx="5.5" cy="11.5" r="1"></circle>
            <circle id="Oval" cx="16.5" cy="11.5" r="1"></circle>
            <circle id="Oval" cx="10.5" cy="11.5" r="1"></circle>
            <circle id="Oval" cx="10.5" cy="16.5" r="1"></circle>
        </g>
    </g>
</svg>