<?xml version="1.0" encoding="UTF-8"?>
<svg width="22px" height="23px" viewBox="0 0 22 23" version="1.1" xmlns="http://www.w3.org/2000/svg" xmlns:xlink="http://www.w3.org/1999/xlink">
    <!-- Generator: Sketch 55.2 (78181) - https://sketchapp.com -->
    <title>icon/home-blue</title>
    <desc>Created with Sketch.</desc>
    <g id="icon/home-blue" stroke="none" stroke-width="1" fill="none" fill-rule="evenodd">
        <g id="icon_home" fill="#009CBE" fill-rule="nonzero">
            <path d="M21.7647883,10.0990907 L11.5356463,0.217961823 C11.237653,-0.072653941 10.7623677,-0.072653941 10.4643745,0.217961823 L0.235618101,10.0987049 C0.0850307551,10.2441092 0,10.4444923 0,10.6538939 C0,11.0800757 0.345328985,11.4255255 0.771254014,11.4255255 L2.13058921,11.4255255 L2.13058921,22.2283684 C2.13058921,22.6545502 2.47587,23 2.90184323,23 L8.30062133,23 C8.72659456,23 9.07187534,22.6545502 9.07187534,22.2283684 L9.07187534,16.0553153 L12.9281454,16.0553153 L12.9281454,22.2283684 C12.9281454,22.6545502 13.2734262,23 13.6993994,23 L19.0981775,23 C19.5241508,23 19.8694315,22.6545502 19.8694315,22.2283684 L19.8694315,11.4255255 L21.2287667,11.4255255 C21.437873,11.4255255 21.6379652,11.3405978 21.7832984,11.1901778 C22.0793153,10.8837436 22.0710243,10.3952526 21.7647883,10.0990907 Z" id="Shape"></path>
        </g>
    </g>
</svg>