<?xml version="1.0" encoding="UTF-8"?>
<svg width="21px" height="26px" viewBox="0 0 21 26" version="1.1" xmlns="http://www.w3.org/2000/svg" xmlns:xlink="http://www.w3.org/1999/xlink">
    <!-- Generator: Sketch 55.2 (78181) - https://sketchapp.com -->
    <title>icon/medicos-blue</title>
    <desc>Created with Sketch.</desc>
    <g id="icon/medicos-blue" stroke="none" stroke-width="1" fill="none" fill-rule="evenodd">
        <g id="doctor-stethoscope" fill="#009CBE" fill-rule="nonzero">
            <circle id="Oval" cx="10.5" cy="1.5" r="1.5"></circle>
            <circle id="Oval" cx="16.5" cy="1.5" r="1.5"></circle>
            <path d="M20.5093476,2.80529652 C19.855272,1.67493197 18.6838601,1 17.375709,1 L17.375709,2.27406468 C18.2223175,2.27406468 18.9803199,2.71077038 19.403688,3.44226516 C19.827056,4.17388734 19.827056,5.04729874 19.4038156,5.77892092 L15.3026611,12.8665984 C14.8794207,13.5980932 14.1212906,14.0347989 13.2746822,14.0349263 C12.4280738,14.0349263 11.6699436,13.5982206 11.2465756,12.8665984 L7.14554873,5.77879353 C6.72230835,5.04729874 6.72230835,4.17375995 7.14554873,3.44226516 C7.5687891,2.71077038 8.32704689,2.27393728 9.17365532,2.27393728 L9.17365532,1 C7.86550422,1 6.69396465,1.67480458 6.03988911,2.80529652 C5.38581356,3.93578847 5.38581356,5.28539762 6.03988911,6.41576217 L10.140916,13.5034396 C10.6863407,14.4460258 11.5920623,15.0702551 12.6363106,15.2521733 L12.6363106,18.6704019 C12.6363106,22.0095189 10.6608058,24.7260627 8.2325679,24.7260627 C5.80432998,24.7260627 3.82895289,22.0095189 3.82895289,18.6704019 L3.82895289,14.600427 C5.2831634,14.3046188 6.38090722,13.0184517 6.38090722,11.4810642 C6.38090722,9.72570602 4.94967808,8.29762232 3.19045361,8.29762232 C1.43122914,8.29762232 0,9.72570602 0,11.4810642 C0,13.0183243 1.09774381,14.3044914 2.552082,14.600427 L2.552082,18.6704019 C2.552082,22.7119679 5.10033378,26 8.2325679,26 C11.3646743,26 13.9129261,22.7119679 13.9129261,18.6704019 L13.9129261,15.2521733 C14.9570467,15.0702551 15.862896,14.4460258 16.408193,13.5034396 L20.5093476,6.41576217 C21.1635508,5.28539762 21.1635508,3.93566107 20.5093476,2.80529652 Z" id="Shape"></path>
        </g>
    </g>
</svg>