<?xml version="1.0" encoding="UTF-8"?>
<svg width="16px" height="21px" viewBox="0 0 16 21" version="1.1" xmlns="http://www.w3.org/2000/svg" xmlns:xlink="http://www.w3.org/1999/xlink">
    <!-- Generator: Sketch 55.2 (78181) - https://sketchapp.com -->
    <title>icon/perfil-grey</title>
    <desc>Created with Sketch.</desc>
    <g id="icon/perfil-grey" stroke="none" stroke-width="1" fill="none" fill-rule="evenodd">
        <g id="icon_perfil" fill="#C2C2C2" fill-rule="nonzero">
            <path d="M14.2657391,15.01115 L10.9429565,13.33955 C10.6295652,13.1817 10.4347826,12.8646 10.4347826,12.5118 L10.4347826,11.32845 C10.5144348,11.23045 10.5982609,11.1188 10.6848696,10.9956 C11.1158261,10.3831 11.4612174,9.7013 11.7123478,8.96595 C12.2031304,8.7395 12.5217391,8.25125 12.5217391,7.7 L12.5217391,6.3 C12.5217391,5.96295 12.3965217,5.6364 12.173913,5.38125 L12.173913,3.5196 C12.1933913,3.3271 12.269913,2.1812 11.4462609,1.23585 C10.7318261,0.4158 9.57252174,0 8,0 C6.42747826,0 5.26817391,0.4158 4.55373913,1.2355 C3.73008696,2.18085 3.8066087,3.3271 3.82608696,3.5196 L3.82608696,5.38125 C3.60347826,5.6364 3.47826087,5.96295 3.47826087,6.3 L3.47826087,7.7 C3.47826087,8.12595 3.6706087,8.5232 3.99895652,8.78815 C4.31756522,10.0576 4.98434783,11.01415 5.2173913,11.3211 L5.2173913,12.47925 C5.2173913,12.81805 5.03373913,13.12885 4.73843478,13.29125 L1.63547826,14.99435 C0.626434783,15.5484 0,16.6103 0,17.7667 L0,18.9 C0,20.5611 5.23304348,21 8,21 C10.7669565,21 16,20.5611 16,18.9 L16,17.83495 C16,16.63165 15.3353043,15.54945 14.2657391,15.01115 Z M15.3043478,18.9 C15.3043478,19.37495 12.7262609,20.3 8,20.3 C3.27373913,20.3 0.695652174,19.37495 0.695652174,18.9 L0.695652174,17.7667 C0.695652174,16.86685 1.18330435,16.0398 1.96834783,15.6093 L5.07130435,13.9062 C5.5906087,13.62095 5.91304348,13.0739 5.91304348,12.47925 L5.91304348,11.0726 L5.832,10.9753 C5.82365217,10.96515 4.97113043,9.9274 4.64591304,8.50255 L4.61426087,8.36395 L4.49565217,8.28695 C4.29426087,8.15605 4.17391304,7.9366 4.17391304,7.7 L4.17391304,6.3 C4.17391304,6.10365 4.25669565,5.9206 4.40695652,5.78375 L4.52173913,5.6798 L4.52173913,3.5 L4.5186087,3.45415 C4.51756522,3.4447 4.39930435,2.4745 5.07686957,1.6968 C5.65321739,1.0353 6.63686957,0.7 8,0.7 C9.35826087,0.7 10.3398261,1.03285 10.9168696,1.6898 C11.594087,2.46015 11.482087,3.44575 11.4813913,3.45415 L11.4782609,5.6798 L11.5930435,5.7841 C11.7433043,5.9206 11.826087,6.10365 11.826087,6.3 L11.826087,7.7 C11.826087,8.00555 11.6271304,8.27295 11.3314783,8.36465 L11.1582609,8.4182 L11.1026087,8.59145 C10.869913,9.3198 10.5384348,9.9925 10.1168696,10.591 C10.0135652,10.73835 9.91304348,10.8689 9.82573913,10.96865 L9.73913043,11.06805 L9.73913043,12.5118 C9.73913043,13.1313 10.0810435,13.68815 10.6316522,13.96535 L13.9544348,15.63695 C14.7871304,16.0559 15.3043478,16.898 15.3043478,17.83495 L15.3043478,18.9 Z" id="Shape"></path>
        </g>
    </g>
</svg>